<mxfile host="app.diagrams.net" modified="2021-05-18T09:56:18.102Z" agent="5.0 (Macintosh; Intel Mac OS X 10_15_7) AppleWebKit/537.36 (KHTML, like Gecko) Chrome/90.0.4430.93 Safari/537.36" etag="dh2WVA3hDGmoKNgKe2DQ" version="14.6.13" type="github">
  <diagram id="q8j4EhVqGKT0Aphho5P9" name="Page-1">
    <mxGraphModel dx="1107" dy="632" grid="1" gridSize="10" guides="1" tooltips="1" connect="1" arrows="1" fold="1" page="1" pageScale="1" pageWidth="827" pageHeight="1169" math="0" shadow="0">
      <root>
        <mxCell id="0" />
        <mxCell id="1" parent="0" />
        <mxCell id="B4g7gdAb48Q1iIURWmFt-1" value="TOP" style="rounded=0;whiteSpace=wrap;html=1;" parent="1" vertex="1">
          <mxGeometry x="170" y="40" width="120" height="30" as="geometry" />
        </mxCell>
        <mxCell id="B4g7gdAb48Q1iIURWmFt-6" value="" style="endArrow=none;html=1;" parent="1" target="B4g7gdAb48Q1iIURWmFt-1" edge="1">
          <mxGeometry width="50" height="50" relative="1" as="geometry">
            <mxPoint x="230" y="440" as="sourcePoint" />
            <mxPoint x="240" y="180" as="targetPoint" />
          </mxGeometry>
        </mxCell>
        <mxCell id="B4g7gdAb48Q1iIURWmFt-7" value="" style="endArrow=none;html=1;" parent="1" edge="1">
          <mxGeometry width="50" height="50" relative="1" as="geometry">
            <mxPoint x="230" y="160" as="sourcePoint" />
            <mxPoint x="360" y="160" as="targetPoint" />
          </mxGeometry>
        </mxCell>
        <mxCell id="B4g7gdAb48Q1iIURWmFt-8" value="Index" style="rounded=0;whiteSpace=wrap;html=1;" parent="1" vertex="1">
          <mxGeometry x="354" y="140" width="120" height="40" as="geometry" />
        </mxCell>
        <mxCell id="B4g7gdAb48Q1iIURWmFt-9" value="" style="endArrow=none;html=1;" parent="1" edge="1">
          <mxGeometry width="50" height="50" relative="1" as="geometry">
            <mxPoint x="480" y="159.5" as="sourcePoint" />
            <mxPoint x="610" y="159.5" as="targetPoint" />
          </mxGeometry>
        </mxCell>
        <mxCell id="B4g7gdAb48Q1iIURWmFt-10" value="show" style="rounded=0;whiteSpace=wrap;html=1;" parent="1" vertex="1">
          <mxGeometry x="610" y="140" width="120" height="40" as="geometry" />
        </mxCell>
        <mxCell id="B4g7gdAb48Q1iIURWmFt-11" value="" style="endArrow=none;html=1;" parent="1" edge="1">
          <mxGeometry width="50" height="50" relative="1" as="geometry">
            <mxPoint x="230" y="250" as="sourcePoint" />
            <mxPoint x="360" y="250" as="targetPoint" />
          </mxGeometry>
        </mxCell>
        <mxCell id="B4g7gdAb48Q1iIURWmFt-12" value="User Creation" style="rounded=0;whiteSpace=wrap;html=1;" parent="1" vertex="1">
          <mxGeometry x="354" y="230" width="120" height="40" as="geometry" />
        </mxCell>
        <mxCell id="B4g7gdAb48Q1iIURWmFt-13" value="" style="endArrow=none;html=1;" parent="1" edge="1">
          <mxGeometry width="50" height="50" relative="1" as="geometry">
            <mxPoint x="230" y="350" as="sourcePoint" />
            <mxPoint x="360" y="350" as="targetPoint" />
            <Array as="points">
              <mxPoint x="300" y="350" />
            </Array>
          </mxGeometry>
        </mxCell>
        <mxCell id="B4g7gdAb48Q1iIURWmFt-14" value="Login" style="rounded=0;whiteSpace=wrap;html=1;" parent="1" vertex="1">
          <mxGeometry x="354" y="330" width="120" height="40" as="geometry" />
        </mxCell>
        <mxCell id="B4g7gdAb48Q1iIURWmFt-15" value="" style="endArrow=none;html=1;" parent="1" edge="1">
          <mxGeometry width="50" height="50" relative="1" as="geometry">
            <mxPoint x="230" y="440" as="sourcePoint" />
            <mxPoint x="360" y="440" as="targetPoint" />
            <Array as="points">
              <mxPoint x="300" y="440" />
            </Array>
          </mxGeometry>
        </mxCell>
        <mxCell id="B4g7gdAb48Q1iIURWmFt-16" value="Stamp" style="rounded=0;whiteSpace=wrap;html=1;" parent="1" vertex="1">
          <mxGeometry x="358" y="420" width="120" height="40" as="geometry" />
        </mxCell>
        <mxCell id="B4g7gdAb48Q1iIURWmFt-17" value="" style="endArrow=none;html=1;" parent="1" edge="1">
          <mxGeometry width="50" height="50" relative="1" as="geometry">
            <mxPoint x="474" y="349.5" as="sourcePoint" />
            <mxPoint x="604" y="349.5" as="targetPoint" />
            <Array as="points">
              <mxPoint x="544" y="349.5" />
            </Array>
          </mxGeometry>
        </mxCell>
        <mxCell id="B4g7gdAb48Q1iIURWmFt-18" value="User show" style="rounded=0;whiteSpace=wrap;html=1;" parent="1" vertex="1">
          <mxGeometry x="600" y="330" width="120" height="40" as="geometry" />
        </mxCell>
        <mxCell id="B4g7gdAb48Q1iIURWmFt-20" value="画面遷移" style="text;strokeColor=none;fillColor=none;html=1;fontSize=24;fontStyle=1;verticalAlign=middle;align=center;" parent="1" vertex="1">
          <mxGeometry x="30" y="20" width="100" height="40" as="geometry" />
        </mxCell>
        <mxCell id="B4g7gdAb48Q1iIURWmFt-21" value="要件" style="text;strokeColor=none;fillColor=none;html=1;fontSize=24;fontStyle=1;verticalAlign=middle;align=center;" parent="1" vertex="1">
          <mxGeometry x="30" y="480" width="100" height="40" as="geometry" />
        </mxCell>
        <mxCell id="B4g7gdAb48Q1iIURWmFt-22" value="&lt;ul&gt;&lt;li&gt;&lt;div&gt;TOPページ&lt;/div&gt;&lt;/li&gt;&lt;li&gt;&lt;div&gt;全国二郎の紹介ページ&lt;/div&gt;&lt;/li&gt;&lt;li&gt;&lt;div&gt;&lt;div&gt;二郎スタンプラリー&lt;/div&gt;&lt;/div&gt;&lt;/li&gt;&lt;li&gt;&lt;div&gt;ユーザー登録&lt;/div&gt;&lt;/li&gt;&lt;/ul&gt;" style="text;strokeColor=none;fillColor=none;html=1;whiteSpace=wrap;verticalAlign=middle;overflow=hidden;" parent="1" vertex="1">
          <mxGeometry x="140" y="545" width="250" height="80" as="geometry" />
        </mxCell>
        <mxCell id="B4g7gdAb48Q1iIURWmFt-23" value="コントローラ" style="text;strokeColor=none;fillColor=none;html=1;fontSize=24;fontStyle=1;verticalAlign=middle;align=center;" parent="1" vertex="1">
          <mxGeometry x="40" y="670" width="100" height="40" as="geometry" />
        </mxCell>
        <mxCell id="B4g7gdAb48Q1iIURWmFt-25" value="Post.controller" style="rounded=0;whiteSpace=wrap;html=1;" parent="1" vertex="1">
          <mxGeometry x="160" y="833" width="120" height="40" as="geometry" />
        </mxCell>
        <mxCell id="B4g7gdAb48Q1iIURWmFt-26" value="User.controller" style="rounded=0;whiteSpace=wrap;html=1;" parent="1" vertex="1">
          <mxGeometry x="160" y="930" width="120" height="40" as="geometry" />
        </mxCell>
        <mxCell id="B4g7gdAb48Q1iIURWmFt-27" value="application.controller" style="rounded=0;whiteSpace=wrap;html=1;" parent="1" vertex="1">
          <mxGeometry x="160" y="740" width="120" height="40" as="geometry" />
        </mxCell>
        <UserObject label="二郎各店の紹介文・投稿を管理" placeholders="1" name="Variable" id="B4g7gdAb48Q1iIURWmFt-28">
          <mxCell style="text;html=1;strokeColor=none;fillColor=none;align=center;verticalAlign=middle;whiteSpace=wrap;overflow=hidden;" parent="1" vertex="1">
            <mxGeometry x="290" y="843" width="190" height="20" as="geometry" />
          </mxCell>
        </UserObject>
        <UserObject label="ユーザー登録、変更、削除、ログイン" placeholders="1" name="Variable" id="B4g7gdAb48Q1iIURWmFt-29">
          <mxCell style="text;html=1;strokeColor=none;fillColor=none;align=center;verticalAlign=middle;whiteSpace=wrap;overflow=hidden;" parent="1" vertex="1">
            <mxGeometry x="288" y="940" width="242" height="20" as="geometry" />
          </mxCell>
        </UserObject>
        <mxCell id="gZ2zMx3dyLfsJcm0VM1t-1" value="エンティティ" style="text;strokeColor=none;fillColor=none;html=1;fontSize=24;fontStyle=1;verticalAlign=middle;align=center;" vertex="1" parent="1">
          <mxGeometry x="40" y="1020" width="100" height="40" as="geometry" />
        </mxCell>
        <mxCell id="gZ2zMx3dyLfsJcm0VM1t-31" style="edgeStyle=orthogonalEdgeStyle;rounded=0;orthogonalLoop=1;jettySize=auto;html=1;exitX=0.5;exitY=1;exitDx=0;exitDy=0;" edge="1" parent="1" source="gZ2zMx3dyLfsJcm0VM1t-2">
          <mxGeometry relative="1" as="geometry">
            <mxPoint x="230" y="1330" as="targetPoint" />
          </mxGeometry>
        </mxCell>
        <mxCell id="gZ2zMx3dyLfsJcm0VM1t-2" value="Info" style="shape=table;startSize=30;container=1;collapsible=1;childLayout=tableLayout;fixedRows=1;rowLines=0;fontStyle=1;align=center;resizeLast=1;" vertex="1" parent="1">
          <mxGeometry x="140" y="1110" width="180" height="210" as="geometry" />
        </mxCell>
        <mxCell id="gZ2zMx3dyLfsJcm0VM1t-3" value="" style="shape=partialRectangle;collapsible=0;dropTarget=0;pointerEvents=0;fillColor=none;top=0;left=0;bottom=1;right=0;points=[[0,0.5],[1,0.5]];portConstraint=eastwest;" vertex="1" parent="gZ2zMx3dyLfsJcm0VM1t-2">
          <mxGeometry y="30" width="180" height="30" as="geometry" />
        </mxCell>
        <mxCell id="gZ2zMx3dyLfsJcm0VM1t-4" value="PK" style="shape=partialRectangle;connectable=0;fillColor=none;top=0;left=0;bottom=0;right=0;fontStyle=1;overflow=hidden;" vertex="1" parent="gZ2zMx3dyLfsJcm0VM1t-3">
          <mxGeometry width="30" height="30" as="geometry" />
        </mxCell>
        <mxCell id="gZ2zMx3dyLfsJcm0VM1t-5" value="UniqueID" style="shape=partialRectangle;connectable=0;fillColor=none;top=0;left=0;bottom=0;right=0;align=left;spacingLeft=6;fontStyle=5;overflow=hidden;" vertex="1" parent="gZ2zMx3dyLfsJcm0VM1t-3">
          <mxGeometry x="30" width="150" height="30" as="geometry" />
        </mxCell>
        <mxCell id="gZ2zMx3dyLfsJcm0VM1t-6" value="" style="shape=partialRectangle;collapsible=0;dropTarget=0;pointerEvents=0;fillColor=none;top=0;left=0;bottom=0;right=0;points=[[0,0.5],[1,0.5]];portConstraint=eastwest;" vertex="1" parent="gZ2zMx3dyLfsJcm0VM1t-2">
          <mxGeometry y="60" width="180" height="30" as="geometry" />
        </mxCell>
        <mxCell id="gZ2zMx3dyLfsJcm0VM1t-7" value="" style="shape=partialRectangle;connectable=0;fillColor=none;top=0;left=0;bottom=0;right=0;editable=1;overflow=hidden;" vertex="1" parent="gZ2zMx3dyLfsJcm0VM1t-6">
          <mxGeometry width="30" height="30" as="geometry" />
        </mxCell>
        <mxCell id="gZ2zMx3dyLfsJcm0VM1t-8" value="name" style="shape=partialRectangle;connectable=0;fillColor=none;top=0;left=0;bottom=0;right=0;align=left;spacingLeft=6;overflow=hidden;" vertex="1" parent="gZ2zMx3dyLfsJcm0VM1t-6">
          <mxGeometry x="30" width="150" height="30" as="geometry" />
        </mxCell>
        <mxCell id="gZ2zMx3dyLfsJcm0VM1t-9" value="" style="shape=partialRectangle;collapsible=0;dropTarget=0;pointerEvents=0;fillColor=none;top=0;left=0;bottom=0;right=0;points=[[0,0.5],[1,0.5]];portConstraint=eastwest;" vertex="1" parent="gZ2zMx3dyLfsJcm0VM1t-2">
          <mxGeometry y="90" width="180" height="30" as="geometry" />
        </mxCell>
        <mxCell id="gZ2zMx3dyLfsJcm0VM1t-10" value="" style="shape=partialRectangle;connectable=0;fillColor=none;top=0;left=0;bottom=0;right=0;editable=1;overflow=hidden;" vertex="1" parent="gZ2zMx3dyLfsJcm0VM1t-9">
          <mxGeometry width="30" height="30" as="geometry" />
        </mxCell>
        <mxCell id="gZ2zMx3dyLfsJcm0VM1t-11" value="address" style="shape=partialRectangle;connectable=0;fillColor=none;top=0;left=0;bottom=0;right=0;align=left;spacingLeft=6;overflow=hidden;" vertex="1" parent="gZ2zMx3dyLfsJcm0VM1t-9">
          <mxGeometry x="30" width="150" height="30" as="geometry" />
        </mxCell>
        <mxCell id="gZ2zMx3dyLfsJcm0VM1t-12" value="" style="shape=partialRectangle;collapsible=0;dropTarget=0;pointerEvents=0;fillColor=none;top=0;left=0;bottom=0;right=0;points=[[0,0.5],[1,0.5]];portConstraint=eastwest;" vertex="1" parent="gZ2zMx3dyLfsJcm0VM1t-2">
          <mxGeometry y="120" width="180" height="30" as="geometry" />
        </mxCell>
        <mxCell id="gZ2zMx3dyLfsJcm0VM1t-13" value="" style="shape=partialRectangle;connectable=0;fillColor=none;top=0;left=0;bottom=0;right=0;editable=1;overflow=hidden;" vertex="1" parent="gZ2zMx3dyLfsJcm0VM1t-12">
          <mxGeometry width="30" height="30" as="geometry" />
        </mxCell>
        <mxCell id="gZ2zMx3dyLfsJcm0VM1t-14" value="time" style="shape=partialRectangle;connectable=0;fillColor=none;top=0;left=0;bottom=0;right=0;align=left;spacingLeft=6;overflow=hidden;" vertex="1" parent="gZ2zMx3dyLfsJcm0VM1t-12">
          <mxGeometry x="30" width="150" height="30" as="geometry" />
        </mxCell>
        <mxCell id="gZ2zMx3dyLfsJcm0VM1t-15" value="User" style="shape=table;startSize=30;container=1;collapsible=1;childLayout=tableLayout;fixedRows=1;rowLines=0;fontStyle=1;align=center;resizeLast=1;" vertex="1" parent="1">
          <mxGeometry x="400" y="1110" width="180" height="210" as="geometry" />
        </mxCell>
        <mxCell id="gZ2zMx3dyLfsJcm0VM1t-16" value="" style="shape=partialRectangle;collapsible=0;dropTarget=0;pointerEvents=0;fillColor=none;top=0;left=0;bottom=1;right=0;points=[[0,0.5],[1,0.5]];portConstraint=eastwest;" vertex="1" parent="gZ2zMx3dyLfsJcm0VM1t-15">
          <mxGeometry y="30" width="180" height="30" as="geometry" />
        </mxCell>
        <mxCell id="gZ2zMx3dyLfsJcm0VM1t-17" value="PK" style="shape=partialRectangle;connectable=0;fillColor=none;top=0;left=0;bottom=0;right=0;fontStyle=1;overflow=hidden;" vertex="1" parent="gZ2zMx3dyLfsJcm0VM1t-16">
          <mxGeometry width="30" height="30" as="geometry" />
        </mxCell>
        <mxCell id="gZ2zMx3dyLfsJcm0VM1t-18" value="UniqueID" style="shape=partialRectangle;connectable=0;fillColor=none;top=0;left=0;bottom=0;right=0;align=left;spacingLeft=6;fontStyle=5;overflow=hidden;" vertex="1" parent="gZ2zMx3dyLfsJcm0VM1t-16">
          <mxGeometry x="30" width="150" height="30" as="geometry" />
        </mxCell>
        <mxCell id="gZ2zMx3dyLfsJcm0VM1t-19" value="" style="shape=partialRectangle;collapsible=0;dropTarget=0;pointerEvents=0;fillColor=none;top=0;left=0;bottom=0;right=0;points=[[0,0.5],[1,0.5]];portConstraint=eastwest;" vertex="1" parent="gZ2zMx3dyLfsJcm0VM1t-15">
          <mxGeometry y="60" width="180" height="30" as="geometry" />
        </mxCell>
        <mxCell id="gZ2zMx3dyLfsJcm0VM1t-20" value="" style="shape=partialRectangle;connectable=0;fillColor=none;top=0;left=0;bottom=0;right=0;editable=1;overflow=hidden;" vertex="1" parent="gZ2zMx3dyLfsJcm0VM1t-19">
          <mxGeometry width="30" height="30" as="geometry" />
        </mxCell>
        <mxCell id="gZ2zMx3dyLfsJcm0VM1t-21" value="name" style="shape=partialRectangle;connectable=0;fillColor=none;top=0;left=0;bottom=0;right=0;align=left;spacingLeft=6;overflow=hidden;" vertex="1" parent="gZ2zMx3dyLfsJcm0VM1t-19">
          <mxGeometry x="30" width="150" height="30" as="geometry" />
        </mxCell>
        <mxCell id="gZ2zMx3dyLfsJcm0VM1t-22" value="" style="shape=partialRectangle;collapsible=0;dropTarget=0;pointerEvents=0;fillColor=none;top=0;left=0;bottom=0;right=0;points=[[0,0.5],[1,0.5]];portConstraint=eastwest;" vertex="1" parent="gZ2zMx3dyLfsJcm0VM1t-15">
          <mxGeometry y="90" width="180" height="30" as="geometry" />
        </mxCell>
        <mxCell id="gZ2zMx3dyLfsJcm0VM1t-23" value="" style="shape=partialRectangle;connectable=0;fillColor=none;top=0;left=0;bottom=0;right=0;editable=1;overflow=hidden;" vertex="1" parent="gZ2zMx3dyLfsJcm0VM1t-22">
          <mxGeometry width="30" height="30" as="geometry" />
        </mxCell>
        <mxCell id="gZ2zMx3dyLfsJcm0VM1t-24" value="email" style="shape=partialRectangle;connectable=0;fillColor=none;top=0;left=0;bottom=0;right=0;align=left;spacingLeft=6;overflow=hidden;" vertex="1" parent="gZ2zMx3dyLfsJcm0VM1t-22">
          <mxGeometry x="30" width="150" height="30" as="geometry" />
        </mxCell>
        <mxCell id="gZ2zMx3dyLfsJcm0VM1t-25" value="" style="shape=partialRectangle;collapsible=0;dropTarget=0;pointerEvents=0;fillColor=none;top=0;left=0;bottom=0;right=0;points=[[0,0.5],[1,0.5]];portConstraint=eastwest;" vertex="1" parent="gZ2zMx3dyLfsJcm0VM1t-15">
          <mxGeometry y="120" width="180" height="30" as="geometry" />
        </mxCell>
        <mxCell id="gZ2zMx3dyLfsJcm0VM1t-26" value="" style="shape=partialRectangle;connectable=0;fillColor=none;top=0;left=0;bottom=0;right=0;editable=1;overflow=hidden;" vertex="1" parent="gZ2zMx3dyLfsJcm0VM1t-25">
          <mxGeometry width="30" height="30" as="geometry" />
        </mxCell>
        <mxCell id="gZ2zMx3dyLfsJcm0VM1t-27" value="password" style="shape=partialRectangle;connectable=0;fillColor=none;top=0;left=0;bottom=0;right=0;align=left;spacingLeft=6;overflow=hidden;" vertex="1" parent="gZ2zMx3dyLfsJcm0VM1t-25">
          <mxGeometry x="30" width="150" height="30" as="geometry" />
        </mxCell>
        <mxCell id="gZ2zMx3dyLfsJcm0VM1t-28" value="" style="shape=partialRectangle;collapsible=0;dropTarget=0;pointerEvents=0;fillColor=none;top=0;left=0;bottom=0;right=0;points=[[0,0.5],[1,0.5]];portConstraint=eastwest;" vertex="1" parent="1">
          <mxGeometry x="140" y="1260" width="180" height="30" as="geometry" />
        </mxCell>
        <mxCell id="gZ2zMx3dyLfsJcm0VM1t-29" value="" style="shape=partialRectangle;connectable=0;fillColor=none;top=0;left=0;bottom=0;right=0;editable=1;overflow=hidden;" vertex="1" parent="gZ2zMx3dyLfsJcm0VM1t-28">
          <mxGeometry width="30" height="30" as="geometry" />
        </mxCell>
        <mxCell id="gZ2zMx3dyLfsJcm0VM1t-30" value="rate" style="shape=partialRectangle;connectable=0;fillColor=none;top=0;left=0;bottom=0;right=0;align=left;spacingLeft=6;overflow=hidden;" vertex="1" parent="gZ2zMx3dyLfsJcm0VM1t-28">
          <mxGeometry x="30" width="150" height="30" as="geometry" />
        </mxCell>
        <mxCell id="gZ2zMx3dyLfsJcm0VM1t-32" value="founded" style="shape=partialRectangle;connectable=0;fillColor=none;top=0;left=0;bottom=0;right=0;align=left;spacingLeft=6;overflow=hidden;" vertex="1" parent="1">
          <mxGeometry x="170" y="1290" width="150" height="30" as="geometry" />
        </mxCell>
        <mxCell id="gZ2zMx3dyLfsJcm0VM1t-33" value="rank_id" style="shape=partialRectangle;connectable=0;fillColor=none;top=0;left=0;bottom=0;right=0;align=left;spacingLeft=6;overflow=hidden;" vertex="1" parent="1">
          <mxGeometry x="430" y="1260" width="150" height="30" as="geometry" />
        </mxCell>
        <mxCell id="gZ2zMx3dyLfsJcm0VM1t-34" value="Rank" style="shape=table;startSize=30;container=1;collapsible=1;childLayout=tableLayout;fixedRows=1;rowLines=0;fontStyle=1;align=center;resizeLast=1;" vertex="1" parent="1">
          <mxGeometry x="630" y="1110" width="180" height="180" as="geometry" />
        </mxCell>
        <mxCell id="gZ2zMx3dyLfsJcm0VM1t-35" value="" style="shape=partialRectangle;collapsible=0;dropTarget=0;pointerEvents=0;fillColor=none;top=0;left=0;bottom=1;right=0;points=[[0,0.5],[1,0.5]];portConstraint=eastwest;" vertex="1" parent="gZ2zMx3dyLfsJcm0VM1t-34">
          <mxGeometry y="30" width="180" height="30" as="geometry" />
        </mxCell>
        <mxCell id="gZ2zMx3dyLfsJcm0VM1t-36" value="PK" style="shape=partialRectangle;connectable=0;fillColor=none;top=0;left=0;bottom=0;right=0;fontStyle=1;overflow=hidden;" vertex="1" parent="gZ2zMx3dyLfsJcm0VM1t-35">
          <mxGeometry width="30" height="30" as="geometry" />
        </mxCell>
        <mxCell id="gZ2zMx3dyLfsJcm0VM1t-37" value="UniqueID" style="shape=partialRectangle;connectable=0;fillColor=none;top=0;left=0;bottom=0;right=0;align=left;spacingLeft=6;fontStyle=5;overflow=hidden;" vertex="1" parent="gZ2zMx3dyLfsJcm0VM1t-35">
          <mxGeometry x="30" width="150" height="30" as="geometry" />
        </mxCell>
        <mxCell id="gZ2zMx3dyLfsJcm0VM1t-38" value="" style="shape=partialRectangle;collapsible=0;dropTarget=0;pointerEvents=0;fillColor=none;top=0;left=0;bottom=0;right=0;points=[[0,0.5],[1,0.5]];portConstraint=eastwest;" vertex="1" parent="gZ2zMx3dyLfsJcm0VM1t-34">
          <mxGeometry y="60" width="180" height="30" as="geometry" />
        </mxCell>
        <mxCell id="gZ2zMx3dyLfsJcm0VM1t-39" value="" style="shape=partialRectangle;connectable=0;fillColor=none;top=0;left=0;bottom=0;right=0;editable=1;overflow=hidden;" vertex="1" parent="gZ2zMx3dyLfsJcm0VM1t-38">
          <mxGeometry width="30" height="30" as="geometry" />
        </mxCell>
        <mxCell id="gZ2zMx3dyLfsJcm0VM1t-40" value="title" style="shape=partialRectangle;connectable=0;fillColor=none;top=0;left=0;bottom=0;right=0;align=left;spacingLeft=6;overflow=hidden;" vertex="1" parent="gZ2zMx3dyLfsJcm0VM1t-38">
          <mxGeometry x="30" width="150" height="30" as="geometry" />
        </mxCell>
        <mxCell id="gZ2zMx3dyLfsJcm0VM1t-44" value="" style="shape=partialRectangle;collapsible=0;dropTarget=0;pointerEvents=0;fillColor=none;top=0;left=0;bottom=0;right=0;points=[[0,0.5],[1,0.5]];portConstraint=eastwest;" vertex="1" parent="gZ2zMx3dyLfsJcm0VM1t-34">
          <mxGeometry y="90" width="180" height="30" as="geometry" />
        </mxCell>
        <mxCell id="gZ2zMx3dyLfsJcm0VM1t-45" value="" style="shape=partialRectangle;connectable=0;fillColor=none;top=0;left=0;bottom=0;right=0;editable=1;overflow=hidden;" vertex="1" parent="gZ2zMx3dyLfsJcm0VM1t-44">
          <mxGeometry width="30" height="30" as="geometry" />
        </mxCell>
        <mxCell id="gZ2zMx3dyLfsJcm0VM1t-46" value="" style="shape=partialRectangle;connectable=0;fillColor=none;top=0;left=0;bottom=0;right=0;align=left;spacingLeft=6;overflow=hidden;" vertex="1" parent="gZ2zMx3dyLfsJcm0VM1t-44">
          <mxGeometry x="30" width="150" height="30" as="geometry" />
        </mxCell>
        <mxCell id="gZ2zMx3dyLfsJcm0VM1t-47" value="point" style="shape=partialRectangle;connectable=0;fillColor=none;top=0;left=0;bottom=0;right=0;align=left;spacingLeft=6;overflow=hidden;" vertex="1" parent="1">
          <mxGeometry x="430" y="1290" width="150" height="30" as="geometry" />
        </mxCell>
      </root>
    </mxGraphModel>
  </diagram>
</mxfile>
